<?xml version="1.0" standalone="no"?><!DOCTYPE svg PUBLIC "-//W3C//DTD SVG 1.1//EN" "http://www.w3.org/Graphics/SVG/1.1/DTD/svg11.dtd"><svg t="1726021503997" class="icon" viewBox="0 0 1024 1024" version="1.1" xmlns="http://www.w3.org/2000/svg" p-id="10723" xmlns:xlink="http://www.w3.org/1999/xlink" width="200" height="200"><path d="M939.008 804.608l-373.7088-647.168h-0.0512c-4.6592-17.2544-25.9584-30.208-51.5584-30.208-25.9584 0-47.3088 13.1584-51.712 30.72l-382.464 662.3232 0.3584 0.4096c-8.8064 8.704-7.0656 29.2864 4.8128 48.4864 11.8784 19.6096 29.8496 30.5152 41.472 26.0096l0.4608 0.7168h774.0928l0.5632-1.024c12.9024 1.9968 28.7744-9.3184 38.7584-29.5936 11.5712-23.296 10.752-49.3568-1.024-60.672zM459.52 360.9088a51.8656 51.8656 0 0 1 103.68 0v267.3664a51.8144 51.8144 0 0 1-103.7312 0V360.9088z m51.7632 466.5856a56.32 56.32 0 1 1 0-112.7424 56.32 56.32 0 1 1 0 112.7424z m0 0" fill="#d7341f" p-id="10724"></path></svg>