<?xml version="1.0" standalone="no"?><!DOCTYPE svg PUBLIC "-//W3C//DTD SVG 1.1//EN" "http://www.w3.org/Graphics/SVG/1.1/DTD/svg11.dtd"><svg t="1726044091341" class="icon" viewBox="0 0 1182 1024" version="1.1" xmlns="http://www.w3.org/2000/svg" p-id="3390" xmlns:xlink="http://www.w3.org/1999/xlink" width="230.859375" height="200"><path d="M375.52694 991.383995c-28.826615 0-64.204734-20.424967-78.618042-45.388816L75.997441 563.355926c-14.413308-24.96909-14.413308-65.813784 0-90.777633L296.908898 89.93904c14.413308-24.963849 49.791427-45.388816 78.618042-45.388816h441.84388c28.826615 0 64.204734 20.424967 78.618042 45.388816L1116.90032 472.578293c14.413308 24.963849 14.413308 65.824266 0 90.777633l-220.911458 382.639253c-14.413308 24.963849-49.791427 45.388816-78.618042 45.388816H375.52694z" fill="#F78A8A" p-id="3391"></path><path d="M133.650672 641.973968c-14.413308-24.96909-14.413308-65.813784 0-90.777633L354.562129 168.557083c14.413308-24.963849 49.791427-45.388816 78.618042-45.388817h441.84388c8.485507 0 17.547547 1.808215 26.473316 4.947696l-15.99091-27.694516c-14.413308-24.963849-49.791427-45.388816-78.618042-45.388816H365.044535c-28.826615 0-64.204734 20.424967-78.618042 45.388816L65.515035 483.060699c-14.413308 24.963849-14.413308 65.824266 0 90.777632l220.900975 382.639253c10.167933 17.6052 30.771102 32.919995 52.144727 40.441121L133.650672 641.973968z" fill="#F7F7F7" opacity=".18" p-id="3392"></path><path d="M375.52694 965.177981c-19.512998 0-46.169756-15.398654-55.923634-32.28581L98.691849 550.252919c-9.753878-16.902879-9.753878-47.673981 0-64.571619L319.603306 103.042047c9.753878-16.897638 36.410636-32.285809 55.923634-32.285809h441.84388c19.512998 0 46.169756 15.388171 55.923634 32.285809l220.911458 382.639253c9.753878 16.897638 9.753878 47.684463 0 64.571619l-220.911458 382.639252c-9.753878 16.897638-36.410636 32.285809-55.923634 32.28581H375.52694z m441.833398 52.412028c37.872932 0 82.375985-25.692376 101.307209-58.491823l220.916699-382.639253c18.936466-32.799447 18.936466-84.1842 0-116.983647L918.678029 76.836033C899.741564 44.036586 855.238511 18.34421 817.365579 18.34421H375.52694c-37.872932 0-82.375985 25.692376-101.31245 58.491823L53.303033 459.475286c-18.936466 32.799447-18.936466 84.1842 0 116.983647l220.900975 382.639253c18.936466 32.799447 63.439519 58.491823 101.31245 58.491823h441.84388z" fill="#6E6E96" p-id="3393"></path><path d="M544.036852 286.856271v255.272783c0 28.936681 23.464865 52.412028 52.412028 52.412029 28.936681 0 52.412028-23.475347 52.412029-52.412029V286.856271c0-28.947163-23.475347-52.412028-52.412029-52.412028-28.947163 0-52.412028 23.464865-52.412028 52.412028z" fill="#FFFFFF" p-id="3394"></path><path d="M596.44888 620.747097c-43.349988 0-78.618042-35.268054-78.618042-78.618043V286.856271c0-43.349988 35.268054-78.618042 78.618042-78.618042s78.618042 35.268054 78.618043 78.618042v255.272783c0 43.349988-35.262813 78.618042-78.618043 78.618043z m0-360.09684c-14.449996 0-26.206014 11.756018-26.206014 26.206014v255.272783c0 14.449996 11.756018 26.206014 26.206014 26.206014s26.206014-11.756018 26.206014-26.206014V286.856271c0-14.449996-11.756018-26.206014-26.206014-26.206014z" fill="#6E6E96" p-id="3395"></path><path d="M544.036852 729.234754v15.010805c0 28.941922 23.464865 52.412028 52.412028 52.412028 28.936681 0 52.412028-23.470106 52.412029-52.412028v-15.010805c0-28.936681-23.475347-52.412028-52.412029-52.412028-28.947163 0-52.412028 23.459624-52.412028 52.412028z" fill="#FFFFFF" p-id="3396"></path><path d="M596.44888 822.863601c-43.349988 0-78.618042-35.268054-78.618042-78.618042v-15.010805c0-43.349988 35.268054-78.618042 78.618042-78.618043s78.618042 35.268054 78.618043 78.618043v15.010805c0 43.35523-35.262813 78.618042-78.618043 78.618042z m0-119.834861c-14.449996 0-26.206014 11.756018-26.206014 26.206014v15.010805c0 14.449996 11.756018 26.206014 26.206014 26.206014s26.206014-11.756018 26.206014-26.206014v-15.010805c0-14.449996-11.756018-26.206014-26.206014-26.206014z" fill="#6E6E96" p-id="3397"></path><path d="M1122.141523 451.613482L901.224824 68.974229c-9.71719-16.839985-28.983852-31.583488-49.340683-39.419086L1059.247089 388.719048c14.413308 24.963849 14.413308 65.819025 0 90.777633l-220.911458 382.639252c-14.413308 24.963849-49.791427 45.388816-78.618042 45.388817H317.87371c-9.386994 0-19.455345-2.201305-29.277359-5.980213l13.55375 23.475348c14.413308 24.963849 49.791427 45.383575 78.618042 45.383575h441.84388c28.826615 0 64.204734-20.419726 78.618042-45.383575l220.911458-382.644494c14.413308-24.937643 14.413308-65.79806 0-90.761909z" fill="#6E6E96" opacity=".15" p-id="3398"></path></svg>