<?xml version="1.0" standalone="no"?><!DOCTYPE svg PUBLIC "-//W3C//DTD SVG 1.1//EN" "http://www.w3.org/Graphics/SVG/1.1/DTD/svg11.dtd"><svg t="1726021311597" class="icon" viewBox="0 0 1024 1024" version="1.1" xmlns="http://www.w3.org/2000/svg" p-id="1461" xmlns:xlink="http://www.w3.org/1999/xlink" width="200" height="200"><path d="M768.698182 928.690424H268.877576a66.715152 66.715152 0 0 1-66.637576-66.637576v-83.456c0-57.793939 21.317818-113.245091 59.997091-156.16l114.346667-126.867393-114.408728-126.991516a232.851394 232.851394 0 0 1-59.93503-156.097939V128.977455a66.715152 66.715152 0 0 1 66.637576-66.637576h499.820606a66.715152 66.715152 0 0 1 66.637576 66.637576v83.502545c0 57.731879-21.286788 113.167515-59.919516 156.082424l-114.408727 127.007031 114.346667 126.867393a232.835879 232.835879 0 0 1 59.981576 156.16v83.456a66.715152 66.715152 0 0 1-66.637576 66.637576zM268.877576 128.977455v83.502545c0 41.239273 15.204848 80.833939 42.821818 111.491879l134.485333 149.317818a33.31103 33.31103 0 0 1 0 44.606061l-134.438788 149.162666a166.291394 166.291394 0 0 0-42.868363 111.55394v83.440484h499.820606v-83.456c0-41.270303-15.204848-80.880485-42.837334-111.553939l-134.454303-149.147151a33.31103 33.31103 0 0 1-0.015515-44.606061l134.500849-149.317818a166.36897 166.36897 0 0 0 42.806303-111.491879V128.977455H268.877576z" fill="#444444" p-id="1462"></path><path d="M685.397333 712.098909H352.193939v49.974303c0 18.40097 14.910061 33.326545 33.311031 33.326546h266.565818a33.326545 33.326545 0 0 0 33.326545-33.326546v-49.974303z" fill="#1890FF" p-id="1463"></path></svg>