<?xml version="1.0" standalone="no"?><!DOCTYPE svg PUBLIC "-//W3C//DTD SVG 1.1//EN" "http://www.w3.org/Graphics/SVG/1.1/DTD/svg11.dtd"><svg t="1726044259178" class="icon" viewBox="0 0 1024 1024" version="1.1" xmlns="http://www.w3.org/2000/svg" p-id="3875" xmlns:xlink="http://www.w3.org/1999/xlink" width="200" height="200"><path d="M505.321739 509.773913m-465.252174 0a465.252174 465.252174 0 1 0 930.504348 0 465.252174 465.252174 0 1 0-930.504348 0Z" fill="#EEEEFC" p-id="3876"></path><path d="M505.321739 66.782609c244.259617 0 442.991304 198.727235 442.991304 442.991304 0 244.259617-198.731687 442.991304-442.991304 442.991304-244.26407 0-442.991304-198.731687-442.991304-442.991304C62.330435 265.509843 261.05767 66.782609 505.321739 66.782609zM17.808696 509.773913C17.808696 778.591722 236.508383 997.286957 505.321739 997.286957c268.817809 0 487.513043-218.695235 487.513044-487.513044C992.834783 240.960557 774.139548 22.26087 505.321739 22.26087 236.508383 22.26087 17.808696 240.960557 17.808696 509.773913z" fill="#6E6E96" p-id="3877"></path><path d="M505.321739 509.773913m-345.800348 0a345.800348 345.800348 0 1 0 691.600696 0 345.800348 345.800348 0 1 0-691.600696 0Z" fill="#50ACFC" p-id="3878"></path><path d="M505.321739 186.234435c178.398609 0 323.539478 145.14087 323.539478 323.539478s-145.14087 323.539478-323.539478 323.539478-323.539478-145.14087-323.539478-323.539478 145.14087-323.539478 323.539478-323.539478zM137.260522 509.773913c0 202.947896 165.10887 368.061217 368.061217 368.061217 202.947896 0 368.061217-165.113322 368.061218-368.061217s-165.113322-368.061217-368.061218-368.061217-368.061217 165.113322-368.061217 368.061217z" fill="#6E6E96" p-id="3879"></path><path d="M505.321739 44.521739C248.368974 44.521739 40.069565 252.821148 40.069565 509.773913S248.368974 975.026087 505.321739 975.026087 970.573913 766.726678 970.573913 509.773913 762.274504 44.521739 505.321739 44.521739z m-8.904348 877.078261C256.67673 921.6 62.330435 727.253704 62.330435 487.513043S256.67673 53.426087 496.417391 53.426087 930.504348 247.772383 930.504348 487.513043 736.158052 921.6 496.417391 921.6z" fill="#6E6E96" opacity=".15" p-id="3880"></path><path d="M500.869565 168.577113c-190.980452 0-345.800348 154.819896-345.800348 345.795896 0 190.980452 154.819896 345.800348 345.800348 345.800348s345.800348-154.815443 345.800348-345.800348c0-190.976-154.819896-345.795896-345.800348-345.795896z m16.789148 672.977252c-164.935235 0-298.656278-133.703235-298.656278-298.651826 0-164.930783 133.707687-298.651826 298.656278-298.651826 164.939687 0 298.651826 133.707687 298.651826 298.651826 0.004452 164.948591-133.712139 298.651826-298.651826 298.651826z" fill="#6E6E96" opacity=".15" p-id="3881"></path><path d="M510.125635 665.6a22.26087 22.26087 0 0 1-22.26087-22.26087V274.926191a22.26087 22.26087 0 0 1 44.521739 0V643.33913a22.26087 22.26087 0 0 1-22.260869 22.26087z" fill="#6E6E96" p-id="3882"></path><path d="M507.895096 520.330017m-60.798887 0a60.798887 60.798887 0 1 0 121.597774 0 60.798887 60.798887 0 1 0-121.597774 0Z" fill="#FFFFFF" p-id="3883"></path><path d="M507.895096 603.389774c-45.799513 0-83.059757-37.260243-83.059757-83.059757s37.260243-83.059757 83.059757-83.059756 83.059757 37.260243 83.059756 83.059756-37.260243 83.059757-83.059756 83.059757z m0-121.597774c-21.250226 0-38.538017 17.287791-38.538018 38.538017 0 21.250226 17.287791 38.538017 38.538018 38.538018 21.250226 0 38.538017-17.287791 38.538017-38.538018 0-21.250226-17.283339-38.538017-38.538017-38.538017z" fill="#6E6E96" p-id="3884"></path></svg>