<?xml version="1.0" standalone="no"?><!DOCTYPE svg PUBLIC "-//W3C//DTD SVG 1.1//EN" "http://www.w3.org/Graphics/SVG/1.1/DTD/svg11.dtd"><svg t="1726044071441" class="icon" viewBox="0 0 1024 1024" version="1.1" xmlns="http://www.w3.org/2000/svg" p-id="3064" xmlns:xlink="http://www.w3.org/1999/xlink" width="200" height="200"><path d="M222.916689 879.014484L421.479325 128.513354s20.610378-71.58262 73.057672-71.58262c62.445367 0 78.679907 65.072663 78.679907 65.072664l228.538924 757.011086H222.916689z" fill="#F77C7C" p-id="3065"></path><path d="M289.415086 627.681746h436.454019L656.519239 397.968161H350.183646z" fill="#FFD352" p-id="3066"></path><path d="M796.268096 897.714916L567.738139 140.708314S551.503599 75.63565 489.062716 75.63565c-2.90527 0-5.698454 0.255556-8.419903 0.668033 39.301844 6.796897 49.828964 64.400147 49.828964 64.400147l167.165099 757.011086-268.697105 0.004484 367.328325-0.004484z" fill="#6E6E96" opacity=".15" p-id="3067"></path><path d="M239.859612 897.7194h56.791748L441.892432 147.21827s2.91872-13.8628 9.455578-29.388956c-8.935498 15.521673-12.934727 29.388956-12.934728 29.388956L239.859612 897.7194z" fill="#F7F7F7" opacity=".32" p-id="3068"></path><path d="M244.589643 884.753288L443.147796 134.247675l-0.14347 0.53353c0.15692-0.555947 17.279182-55.428782 51.528188-55.428782 43.789769 0 56.446523 46.246694 56.957635 48.214925a24.318184 24.318184 0 0 0 0.260039 0.919105l228.538924 757.011086a22.435139 22.435139 0 0 1 3.4657-19.848193 22.403755 22.403755 0 0 1 17.996532-9.052068l-578.830172 0.004484c6.962784 0 13.526542 3.232561 17.767877 8.738226a22.444106 22.444106 0 0 1 3.900594 19.4133z m-21.672954 16.678401l578.830172-0.004484a22.408238 22.408238 0 0 0 21.457749-28.904744L594.674653 115.524825c0.103119 0.349708 0.206238 0.694933 0.28694 1.044642-7.083837-28.380182-37.18566-82.060421-100.424596-82.060421-68.53388 0-93.564931 84.212473-94.600606 87.799226-0.13002 0.466278-198.688173 750.971891-198.688173 750.971891a22.435139 22.435139 0 0 0 3.909561 19.408816 22.390305 22.390305 0 0 0 17.75891 8.74271z" fill="#6E6E96" p-id="3069"></path><path d="M289.415086 650.098951h436.462985a22.430656 22.430656 0 0 0 21.457749-28.900261l-69.349866-229.709102a22.417205 22.417205 0 0 0-21.457749-15.938633H350.183646a22.403755 22.403755 0 0 0-21.668471 16.682884l-60.777526 229.713586A22.417205 22.417205 0 0 0 289.415086 650.098951z m60.76856-229.713585h306.335593a22.417205 22.417205 0 0 1-21.462233-15.943117l69.349866 229.713586a22.417205 22.417205 0 0 1 21.462233-28.904745H289.415086a22.417205 22.417205 0 0 1 21.672954 28.147043L371.865567 403.689031a22.435139 22.435139 0 0 1-21.681921 16.696335z" fill="#6E6E96" p-id="3070"></path><path d="M177.956742 874.674513h668.750065v106.284453H177.956742z" fill="#E6E6E6" p-id="3071"></path><path d="M627.820732 875.907459h196.46887v105.051507h-196.46887z" fill="#6E6E96" opacity=".15" p-id="3072"></path><path d="M177.956742 897.091718h130.046691v61.450043H177.956742z" fill="#F7F7F7" opacity=".53" p-id="3073"></path><path d="M177.956742 897.091718h668.750065c-12.387748 0-22.417205-10.029458-22.417205-22.417205v106.284453c0-12.383264 10.029458-22.417205 22.417205-22.417205H177.956742a22.417205 22.417205 0 0 1 22.417205 22.417205V874.674513a22.417205 22.417205 0 0 1-22.417205 22.417205z m0 106.284453h668.750065c12.383264 0 22.417205-10.029458 22.417206-22.417205V874.674513a22.417205 22.417205 0 0 0-22.417206-22.417206H177.956742a22.417205 22.417205 0 0 0-22.417205 22.417206v106.284453a22.417205 22.417205 0 0 0 22.417205 22.417205z" fill="#6E6E96" p-id="3074"></path><path d="M335.105834 699.02226h318.651605L642.952346 650.098951H344.570378zM382.442004 454.4102h218.621552l-8.832379-34.024834H389.028179z" fill="#F7F7F7" opacity=".32" p-id="3075"></path></svg>