<?xml version="1.0" standalone="no"?><!DOCTYPE svg PUBLIC "-//W3C//DTD SVG 1.1//EN" "http://www.w3.org/Graphics/SVG/1.1/DTD/svg11.dtd"><svg t="1726021389103" class="icon" viewBox="0 0 1024 1024" version="1.1" xmlns="http://www.w3.org/2000/svg" p-id="6750" xmlns:xlink="http://www.w3.org/1999/xlink" width="200" height="200"><path d="M512 998.4a486.4 486.4 0 1 1 0-972.8 486.4 486.4 0 0 1 0 972.8z m0-51.2a435.2 435.2 0 1 0 0-870.4 435.2 435.2 0 0 0 0 870.4z" fill="#36ab60" p-id="6751"></path><path d="M192.8704 416L265.3184 343.552 433.6128 512l-168.2944 168.448-72.448-72.448L288.8192 512z" fill="#36ab60" fill-opacity=".4" p-id="6752"></path><path d="M379.7504 416L452.096 343.552 620.4416 512l-168.2944 168.448-72.3968-72.448L475.648 512z" fill="#36ab60" fill-opacity=".7" p-id="6753"></path><path d="M566.5792 416l72.448-72.3968L807.3216 512l-168.2944 168.448-72.448-72.448L662.528 512z" fill="#36ab60" p-id="6754"></path></svg>